<svg width="32" height="32" viewBox="0 0 32 32" fill="none" xmlns="http://www.w3.org/2000/svg">
<g clip-path="url(#clip0_679_63403)">
<path d="M16 0C7.16407 0 0 7.15853 0 15.9904C0 24.8222 7.1641 31.9804 16 31.9804C18.5729 31.9804 21.6877 31.3838 24.0721 30.2535C24.4452 30.0766 24.8712 30.035 25.2633 30.1645L30.5988 31.9266C30.9822 32.0533 31.4039 31.9526 31.689 31.6666C31.974 31.3807 32.073 30.9585 31.945 30.5756L30.1817 25.3017C30.0459 24.8956 30.0945 24.4531 30.2861 24.0701C31.4923 21.6585 32 18.6659 32 15.9904C32 7.15853 24.8358 0 16 0Z" fill="url(#paint0_linear_679_63403)"/>
<path d="M12.8 9.60002C12.8 7.83271 14.2327 6.40002 16 6.40002V6.40002C17.7673 6.40002 19.2 7.83271 19.2 9.60002V22.4C19.2 24.1673 17.7673 25.6 16 25.6V25.6C14.2327 25.6 12.8 24.1673 12.8 22.4V9.60002Z" fill="white"/>
</g>
<defs>
<linearGradient id="paint0_linear_679_63403" x1="32.0001" y1="-5.02468e-06" x2="-2.92317" y2="2.0096" gradientUnits="userSpaceOnUse">
<stop offset="0.0104167" stop-color="#895EFE"/>
<stop offset="0.862332" stop-color="#DC8FED"/>
</linearGradient>
<clipPath id="clip0_679_63403">
<rect width="32" height="32" fill="white"/>
</clipPath>
</defs>
</svg>
