<svg width="26" height="26" viewBox="0 0 26 26" fill="none" xmlns="http://www.w3.org/2000/svg">
<path d="M13 0C9.55342 0.00403465 6.24916 1.37852 3.81206 3.82195C1.37496 6.26537 0.00402421 9.57821 0 13.0337C0.714647 30.3246 25.288 30.3196 26 13.0336C25.9959 9.57812 24.625 6.26531 22.1879 3.82191C19.7508 1.37851 16.4466 0.00403828 13 0ZM20.1627 9.17472L11.3788 17.9763C11.307 18.048 11.2217 18.1049 11.1279 18.1434C11.0341 18.182 10.9336 18.2017 10.8323 18.2012C10.7309 18.2007 10.6306 18.1802 10.5371 18.1407C10.4437 18.1012 10.359 18.0436 10.2878 17.9712L5.83215 13.371C5.69529 13.2245 5.62126 13.0299 5.62598 12.8292C5.63071 12.6285 5.7138 12.4376 5.8574 12.2977C6.001 12.1577 6.19364 12.0799 6.39389 12.0808C6.59415 12.0818 6.78603 12.1615 6.92828 12.3028L10.8435 16.3458L19.0768 8.09111C19.2209 7.9503 19.4144 7.87196 19.6156 7.87301C19.8168 7.87405 20.0095 7.9544 20.1521 8.0967C20.2947 8.239 20.3757 8.43183 20.3777 8.63353C20.3797 8.83524 20.3025 9.02963 20.1627 9.17472Z" fill="#0A2540"/>
</svg>
