<svg width="90" height="64" viewBox="0 0 90 64" fill="none" xmlns="http://www.w3.org/2000/svg">
<path d="M68.8237 21.4121C68.8237 15.5742 79.4116 10.8232 79.4116 10.8232V0.235352C63.5293 0.235352 47.647 21.4121 47.647 42.5879C47.647 54.2842 57.1279 63.7646 68.8237 63.7646C80.519 63.7646 90 54.2842 90 42.5879C90 30.8926 80.519 21.4121 68.8237 21.4121Z" fill="#9966FF"/>
<path d="M21.1768 63.7646C32.8726 63.7646 42.3535 54.2842 42.3535 42.5879C42.3535 30.8926 32.8726 21.4121 21.1768 21.4121C21.1768 15.5742 31.7651 10.8232 31.7651 10.8232V0.235352C15.8828 0.235352 0.000488281 21.4121 0.000488281 42.5879C0.000488281 54.2842 9.48145 63.7646 21.1768 63.7646Z" fill="#9966FF"/>
</svg>
